<mxfile host="app.diagrams.net" modified="2022-08-16T02:37:38.366Z" agent="5.0 (Windows NT 10.0; Win64; x64) AppleWebKit/537.36 (KHTML, like Gecko) Chrome/104.0.0.0 Safari/537.36" etag="Bgl7suX6jabHMtZrbjS2" version="20.2.3" type="github">
  <diagram id="aS9pjdUC0Do7hMSleVWt" name="第 1 页">
    <mxGraphModel dx="1673" dy="896" grid="0" gridSize="10" guides="1" tooltips="1" connect="1" arrows="1" fold="1" page="1" pageScale="1" pageWidth="1654" pageHeight="1169" background="none" math="0" shadow="0">
      <root>
        <mxCell id="0" />
        <mxCell id="1" parent="0" />
        <mxCell id="eDFqkNTLr4-eCkODvhOK-2" value="InputStreamSource" style="swimlane;fontStyle=0;childLayout=stackLayout;horizontal=1;startSize=26;fillColor=#CCFFCC;horizontalStack=0;resizeParent=1;resizeParentMax=0;resizeLast=0;collapsible=1;marginBottom=0;direction=east;strokeColor=default;swimlaneLine=1;glass=0;rounded=0;shadow=0;" parent="1" vertex="1" collapsed="1">
          <mxGeometry x="545.5" y="49" width="142" height="30" as="geometry">
            <mxRectangle x="758" y="56" width="180" height="52" as="alternateBounds" />
          </mxGeometry>
        </mxCell>
        <mxCell id="eDFqkNTLr4-eCkODvhOK-3" value="" style="text;strokeColor=none;fillColor=#CCFFCC;align=left;verticalAlign=top;spacingLeft=4;spacingRight=4;overflow=hidden;rotatable=0;points=[[0,0.5],[1,0.5]];portConstraint=eastwest;" parent="eDFqkNTLr4-eCkODvhOK-2" vertex="1">
          <mxGeometry y="26" width="180" height="26" as="geometry" />
        </mxCell>
        <mxCell id="CscIat6FRDX-j5f2x0rS-14" value="EncodedResource" style="swimlane;fontStyle=0;childLayout=stackLayout;horizontal=1;startSize=26;fillColor=#CCFFFF;horizontalStack=0;resizeParent=1;resizeParentMax=0;resizeLast=0;collapsible=1;marginBottom=0;direction=east;strokeColor=default;swimlaneLine=1;glass=0;rounded=0;shadow=0;" parent="1" vertex="1" collapsed="1">
          <mxGeometry x="378" y="167" width="142" height="30" as="geometry">
            <mxRectangle x="604" y="162" width="183" height="52" as="alternateBounds" />
          </mxGeometry>
        </mxCell>
        <mxCell id="CscIat6FRDX-j5f2x0rS-15" value="" style="text;strokeColor=none;fillColor=#CCFFFF;align=left;verticalAlign=top;spacingLeft=4;spacingRight=4;overflow=hidden;rotatable=0;points=[[0,0.5],[1,0.5]];portConstraint=eastwest;" parent="CscIat6FRDX-j5f2x0rS-14" vertex="1">
          <mxGeometry y="26" width="183" height="26" as="geometry" />
        </mxCell>
        <mxCell id="CscIat6FRDX-j5f2x0rS-34" value="" style="endArrow=classic;html=1;rounded=0;exitX=0.5;exitY=0;exitDx=0;exitDy=0;entryX=0.75;entryY=1;entryDx=0;entryDy=0;" parent="1" source="pwm8pi5SUgmq0KaPsRMn-31" target="pwm8pi5SUgmq0KaPsRMn-9" edge="1">
          <mxGeometry width="50" height="50" relative="1" as="geometry">
            <mxPoint x="64" y="106" as="sourcePoint" />
            <mxPoint x="120" y="52" as="targetPoint" />
          </mxGeometry>
        </mxCell>
        <mxCell id="CscIat6FRDX-j5f2x0rS-35" value="" style="endArrow=classic;html=1;rounded=0;dashed=1;exitX=0.5;exitY=0;exitDx=0;exitDy=0;entryX=0.5;entryY=1;entryDx=0;entryDy=0;" parent="1" source="pwm8pi5SUgmq0KaPsRMn-7" target="pwm8pi5SUgmq0KaPsRMn-1" edge="1">
          <mxGeometry width="50" height="50" relative="1" as="geometry">
            <mxPoint x="58" y="290" as="sourcePoint" />
            <mxPoint x="126" y="236" as="targetPoint" />
          </mxGeometry>
        </mxCell>
        <mxCell id="pwm8pi5SUgmq0KaPsRMn-1" value="Resource" style="swimlane;fontStyle=0;childLayout=stackLayout;horizontal=1;startSize=30;fillColor=#CCFFCC;horizontalStack=0;resizeParent=1;resizeParentMax=0;resizeLast=0;collapsible=1;marginBottom=0;direction=east;strokeColor=default;swimlaneLine=1;glass=0;rounded=0;shadow=0;" vertex="1" collapsed="1" parent="1">
          <mxGeometry x="687.5" y="167" width="98" height="30" as="geometry">
            <mxRectangle x="758" y="56" width="180" height="52" as="alternateBounds" />
          </mxGeometry>
        </mxCell>
        <mxCell id="pwm8pi5SUgmq0KaPsRMn-2" value="" style="text;strokeColor=none;fillColor=#CCFFCC;align=left;verticalAlign=top;spacingLeft=4;spacingRight=4;overflow=hidden;rotatable=0;points=[[0,0.5],[1,0.5]];portConstraint=eastwest;" vertex="1" parent="pwm8pi5SUgmq0KaPsRMn-1">
          <mxGeometry y="26" width="180" height="26" as="geometry" />
        </mxCell>
        <mxCell id="pwm8pi5SUgmq0KaPsRMn-3" value="ContextResource" style="swimlane;fontStyle=0;childLayout=stackLayout;horizontal=1;startSize=30;fillColor=#CCFFCC;horizontalStack=0;resizeParent=1;resizeParentMax=0;resizeLast=0;collapsible=1;marginBottom=0;direction=east;strokeColor=default;swimlaneLine=1;glass=0;rounded=0;shadow=0;" vertex="1" collapsed="1" parent="1">
          <mxGeometry x="406" y="273" width="136" height="30" as="geometry">
            <mxRectangle x="758" y="56" width="180" height="52" as="alternateBounds" />
          </mxGeometry>
        </mxCell>
        <mxCell id="pwm8pi5SUgmq0KaPsRMn-4" value="" style="text;strokeColor=none;fillColor=#CCFFCC;align=left;verticalAlign=top;spacingLeft=4;spacingRight=4;overflow=hidden;rotatable=0;points=[[0,0.5],[1,0.5]];portConstraint=eastwest;" vertex="1" parent="pwm8pi5SUgmq0KaPsRMn-3">
          <mxGeometry y="26" width="180" height="26" as="geometry" />
        </mxCell>
        <mxCell id="pwm8pi5SUgmq0KaPsRMn-5" value="WritableResource" style="swimlane;fontStyle=0;childLayout=stackLayout;horizontal=1;startSize=30;fillColor=#CCFFCC;horizontalStack=0;resizeParent=1;resizeParentMax=0;resizeLast=0;collapsible=1;marginBottom=0;direction=east;strokeColor=default;swimlaneLine=1;glass=0;rounded=0;shadow=0;" vertex="1" collapsed="1" parent="1">
          <mxGeometry x="896" y="273" width="141" height="30" as="geometry">
            <mxRectangle x="758" y="56" width="180" height="52" as="alternateBounds" />
          </mxGeometry>
        </mxCell>
        <mxCell id="pwm8pi5SUgmq0KaPsRMn-6" value="" style="text;strokeColor=none;fillColor=#CCFFCC;align=left;verticalAlign=top;spacingLeft=4;spacingRight=4;overflow=hidden;rotatable=0;points=[[0,0.5],[1,0.5]];portConstraint=eastwest;" vertex="1" parent="pwm8pi5SUgmq0KaPsRMn-5">
          <mxGeometry y="26" width="180" height="26" as="geometry" />
        </mxCell>
        <mxCell id="pwm8pi5SUgmq0KaPsRMn-7" value="AbstractResource" style="swimlane;fontStyle=0;childLayout=stackLayout;horizontal=1;startSize=26;fillColor=#CCFFFF;horizontalStack=0;resizeParent=1;resizeParentMax=0;resizeLast=0;collapsible=1;marginBottom=0;direction=east;strokeColor=default;swimlaneLine=1;glass=0;rounded=0;shadow=0;" vertex="1" collapsed="1" parent="1">
          <mxGeometry x="665.5" y="273" width="142" height="30" as="geometry">
            <mxRectangle x="604" y="162" width="183" height="52" as="alternateBounds" />
          </mxGeometry>
        </mxCell>
        <mxCell id="pwm8pi5SUgmq0KaPsRMn-8" value="" style="text;strokeColor=none;fillColor=#CCFFFF;align=left;verticalAlign=top;spacingLeft=4;spacingRight=4;overflow=hidden;rotatable=0;points=[[0,0.5],[1,0.5]];portConstraint=eastwest;" vertex="1" parent="pwm8pi5SUgmq0KaPsRMn-7">
          <mxGeometry y="26" width="183" height="26" as="geometry" />
        </mxCell>
        <mxCell id="pwm8pi5SUgmq0KaPsRMn-9" value="AbstractFileResolvingResource" style="swimlane;fontStyle=0;childLayout=stackLayout;horizontal=1;startSize=26;fillColor=#CCFFFF;horizontalStack=0;resizeParent=1;resizeParentMax=0;resizeLast=0;collapsible=1;marginBottom=0;direction=east;strokeColor=default;swimlaneLine=1;glass=0;rounded=0;shadow=0;" vertex="1" collapsed="1" parent="1">
          <mxGeometry x="229.5" y="420" width="211" height="30" as="geometry">
            <mxRectangle x="604" y="162" width="183" height="52" as="alternateBounds" />
          </mxGeometry>
        </mxCell>
        <mxCell id="pwm8pi5SUgmq0KaPsRMn-10" value="" style="text;strokeColor=none;fillColor=#CCFFFF;align=left;verticalAlign=top;spacingLeft=4;spacingRight=4;overflow=hidden;rotatable=0;points=[[0,0.5],[1,0.5]];portConstraint=eastwest;" vertex="1" parent="pwm8pi5SUgmq0KaPsRMn-9">
          <mxGeometry y="26" width="183" height="26" as="geometry" />
        </mxCell>
        <mxCell id="pwm8pi5SUgmq0KaPsRMn-11" value="BeanDefinitionResource" style="swimlane;fontStyle=0;childLayout=stackLayout;horizontal=1;startSize=26;fillColor=#CCFFFF;horizontalStack=0;resizeParent=1;resizeParentMax=0;resizeLast=0;collapsible=1;marginBottom=0;direction=east;strokeColor=default;swimlaneLine=1;glass=0;rounded=0;shadow=0;" vertex="1" collapsed="1" parent="1">
          <mxGeometry x="21" y="420" width="166" height="30" as="geometry">
            <mxRectangle x="604" y="162" width="183" height="52" as="alternateBounds" />
          </mxGeometry>
        </mxCell>
        <mxCell id="pwm8pi5SUgmq0KaPsRMn-12" value="" style="text;strokeColor=none;fillColor=#CCFFFF;align=left;verticalAlign=top;spacingLeft=4;spacingRight=4;overflow=hidden;rotatable=0;points=[[0,0.5],[1,0.5]];portConstraint=eastwest;" vertex="1" parent="pwm8pi5SUgmq0KaPsRMn-11">
          <mxGeometry y="26" width="183" height="26" as="geometry" />
        </mxCell>
        <mxCell id="pwm8pi5SUgmq0KaPsRMn-13" value="ByteArrayResource" style="swimlane;fontStyle=0;childLayout=stackLayout;horizontal=1;startSize=26;fillColor=#CCFFFF;horizontalStack=0;resizeParent=1;resizeParentMax=0;resizeLast=0;collapsible=1;marginBottom=0;direction=east;strokeColor=default;swimlaneLine=1;glass=0;rounded=0;shadow=0;" vertex="1" collapsed="1" parent="1">
          <mxGeometry x="470" y="420" width="151" height="30" as="geometry">
            <mxRectangle x="604" y="162" width="183" height="52" as="alternateBounds" />
          </mxGeometry>
        </mxCell>
        <mxCell id="pwm8pi5SUgmq0KaPsRMn-14" value="" style="text;strokeColor=none;fillColor=#CCFFFF;align=left;verticalAlign=top;spacingLeft=4;spacingRight=4;overflow=hidden;rotatable=0;points=[[0,0.5],[1,0.5]];portConstraint=eastwest;" vertex="1" parent="pwm8pi5SUgmq0KaPsRMn-13">
          <mxGeometry y="26" width="183" height="26" as="geometry" />
        </mxCell>
        <mxCell id="pwm8pi5SUgmq0KaPsRMn-15" value="DescriptiveResource" style="swimlane;fontStyle=0;childLayout=stackLayout;horizontal=1;startSize=26;fillColor=#CCFFFF;horizontalStack=0;resizeParent=1;resizeParentMax=0;resizeLast=0;collapsible=1;marginBottom=0;direction=east;strokeColor=default;swimlaneLine=1;glass=0;rounded=0;shadow=0;" vertex="1" collapsed="1" parent="1">
          <mxGeometry x="661" y="420" width="151" height="30" as="geometry">
            <mxRectangle x="604" y="162" width="183" height="52" as="alternateBounds" />
          </mxGeometry>
        </mxCell>
        <mxCell id="pwm8pi5SUgmq0KaPsRMn-16" value="" style="text;strokeColor=none;fillColor=#CCFFFF;align=left;verticalAlign=top;spacingLeft=4;spacingRight=4;overflow=hidden;rotatable=0;points=[[0,0.5],[1,0.5]];portConstraint=eastwest;" vertex="1" parent="pwm8pi5SUgmq0KaPsRMn-15">
          <mxGeometry y="26" width="183" height="26" as="geometry" />
        </mxCell>
        <mxCell id="pwm8pi5SUgmq0KaPsRMn-21" value="VfsResource" style="swimlane;fontStyle=0;childLayout=stackLayout;horizontal=1;startSize=26;fillColor=#CCFFFF;horizontalStack=0;resizeParent=1;resizeParentMax=0;resizeLast=0;collapsible=1;marginBottom=0;direction=east;strokeColor=default;swimlaneLine=1;glass=0;rounded=0;shadow=0;" vertex="1" collapsed="1" parent="1">
          <mxGeometry x="863" y="420" width="122" height="30" as="geometry">
            <mxRectangle x="604" y="162" width="183" height="52" as="alternateBounds" />
          </mxGeometry>
        </mxCell>
        <mxCell id="pwm8pi5SUgmq0KaPsRMn-22" value="" style="text;strokeColor=none;fillColor=#CCFFFF;align=left;verticalAlign=top;spacingLeft=4;spacingRight=4;overflow=hidden;rotatable=0;points=[[0,0.5],[1,0.5]];portConstraint=eastwest;" vertex="1" parent="pwm8pi5SUgmq0KaPsRMn-21">
          <mxGeometry y="26" width="183" height="26" as="geometry" />
        </mxCell>
        <mxCell id="pwm8pi5SUgmq0KaPsRMn-23" value="InputStreamResource" style="swimlane;fontStyle=0;childLayout=stackLayout;horizontal=1;startSize=26;fillColor=#CCFFFF;horizontalStack=0;resizeParent=1;resizeParentMax=0;resizeLast=0;collapsible=1;marginBottom=0;direction=east;strokeColor=default;swimlaneLine=1;glass=0;rounded=0;shadow=0;" vertex="1" collapsed="1" parent="1">
          <mxGeometry x="1042" y="420" width="164" height="30" as="geometry">
            <mxRectangle x="604" y="162" width="183" height="52" as="alternateBounds" />
          </mxGeometry>
        </mxCell>
        <mxCell id="pwm8pi5SUgmq0KaPsRMn-24" value="" style="text;strokeColor=none;fillColor=#CCFFFF;align=left;verticalAlign=top;spacingLeft=4;spacingRight=4;overflow=hidden;rotatable=0;points=[[0,0.5],[1,0.5]];portConstraint=eastwest;" vertex="1" parent="pwm8pi5SUgmq0KaPsRMn-23">
          <mxGeometry y="26" width="183" height="26" as="geometry" />
        </mxCell>
        <mxCell id="pwm8pi5SUgmq0KaPsRMn-25" value="PathResource" style="swimlane;fontStyle=0;childLayout=stackLayout;horizontal=1;startSize=26;fillColor=#CCFFFF;horizontalStack=0;resizeParent=1;resizeParentMax=0;resizeLast=0;collapsible=1;marginBottom=0;direction=east;strokeColor=default;swimlaneLine=1;glass=0;rounded=0;shadow=0;" vertex="1" collapsed="1" parent="1">
          <mxGeometry x="1246" y="420" width="118" height="30" as="geometry">
            <mxRectangle x="604" y="162" width="183" height="52" as="alternateBounds" />
          </mxGeometry>
        </mxCell>
        <mxCell id="pwm8pi5SUgmq0KaPsRMn-26" value="" style="text;strokeColor=none;fillColor=#CCFFFF;align=left;verticalAlign=top;spacingLeft=4;spacingRight=4;overflow=hidden;rotatable=0;points=[[0,0.5],[1,0.5]];portConstraint=eastwest;" vertex="1" parent="pwm8pi5SUgmq0KaPsRMn-25">
          <mxGeometry y="26" width="183" height="26" as="geometry" />
        </mxCell>
        <mxCell id="pwm8pi5SUgmq0KaPsRMn-27" value="FileSystemResource" style="swimlane;fontStyle=0;childLayout=stackLayout;horizontal=1;startSize=26;fillColor=#CCFFFF;horizontalStack=0;resizeParent=1;resizeParentMax=0;resizeLast=0;collapsible=1;marginBottom=0;direction=east;strokeColor=default;swimlaneLine=1;glass=0;rounded=0;shadow=0;" vertex="1" collapsed="1" parent="1">
          <mxGeometry x="1395" y="420" width="155" height="30" as="geometry">
            <mxRectangle x="604" y="162" width="183" height="52" as="alternateBounds" />
          </mxGeometry>
        </mxCell>
        <mxCell id="pwm8pi5SUgmq0KaPsRMn-28" value="" style="text;strokeColor=none;fillColor=#CCFFFF;align=left;verticalAlign=top;spacingLeft=4;spacingRight=4;overflow=hidden;rotatable=0;points=[[0,0.5],[1,0.5]];portConstraint=eastwest;" vertex="1" parent="pwm8pi5SUgmq0KaPsRMn-27">
          <mxGeometry y="26" width="183" height="26" as="geometry" />
        </mxCell>
        <mxCell id="pwm8pi5SUgmq0KaPsRMn-29" value="ClassPathResource" style="swimlane;fontStyle=0;childLayout=stackLayout;horizontal=1;startSize=26;fillColor=#CCFFFF;horizontalStack=0;resizeParent=1;resizeParentMax=0;resizeLast=0;collapsible=1;marginBottom=0;direction=east;strokeColor=default;swimlaneLine=1;glass=0;rounded=0;shadow=0;" vertex="1" collapsed="1" parent="1">
          <mxGeometry x="148" y="537" width="142" height="30" as="geometry">
            <mxRectangle x="604" y="162" width="183" height="52" as="alternateBounds" />
          </mxGeometry>
        </mxCell>
        <mxCell id="pwm8pi5SUgmq0KaPsRMn-30" value="" style="text;strokeColor=none;fillColor=#CCFFFF;align=left;verticalAlign=top;spacingLeft=4;spacingRight=4;overflow=hidden;rotatable=0;points=[[0,0.5],[1,0.5]];portConstraint=eastwest;" vertex="1" parent="pwm8pi5SUgmq0KaPsRMn-29">
          <mxGeometry y="26" width="183" height="26" as="geometry" />
        </mxCell>
        <mxCell id="pwm8pi5SUgmq0KaPsRMn-31" value="UrlResource" style="swimlane;fontStyle=0;childLayout=stackLayout;horizontal=1;startSize=26;fillColor=#CCFFFF;horizontalStack=0;resizeParent=1;resizeParentMax=0;resizeLast=0;collapsible=1;marginBottom=0;direction=east;strokeColor=default;swimlaneLine=1;glass=0;rounded=0;shadow=0;" vertex="1" collapsed="1" parent="1">
          <mxGeometry x="371" y="537" width="107" height="30" as="geometry">
            <mxRectangle x="604" y="162" width="183" height="52" as="alternateBounds" />
          </mxGeometry>
        </mxCell>
        <mxCell id="pwm8pi5SUgmq0KaPsRMn-32" value="" style="text;strokeColor=none;fillColor=#CCFFFF;align=left;verticalAlign=top;spacingLeft=4;spacingRight=4;overflow=hidden;rotatable=0;points=[[0,0.5],[1,0.5]];portConstraint=eastwest;" vertex="1" parent="pwm8pi5SUgmq0KaPsRMn-31">
          <mxGeometry y="26" width="183" height="26" as="geometry" />
        </mxCell>
        <mxCell id="pwm8pi5SUgmq0KaPsRMn-37" value="" style="endArrow=classic;html=1;rounded=0;dashed=1;exitX=0.5;exitY=0;exitDx=0;exitDy=0;entryX=0.25;entryY=1;entryDx=0;entryDy=0;" edge="1" parent="1" source="CscIat6FRDX-j5f2x0rS-14" target="eDFqkNTLr4-eCkODvhOK-2">
          <mxGeometry width="50" height="50" relative="1" as="geometry">
            <mxPoint x="68" y="300" as="sourcePoint" />
            <mxPoint x="136" y="246" as="targetPoint" />
          </mxGeometry>
        </mxCell>
        <mxCell id="pwm8pi5SUgmq0KaPsRMn-38" value="" style="endArrow=classic;html=1;rounded=0;exitX=0.5;exitY=0;exitDx=0;exitDy=0;entryX=1;entryY=1;entryDx=0;entryDy=0;" edge="1" parent="1" source="pwm8pi5SUgmq0KaPsRMn-27" target="pwm8pi5SUgmq0KaPsRMn-7">
          <mxGeometry width="50" height="50" relative="1" as="geometry">
            <mxPoint x="92" y="181" as="sourcePoint" />
            <mxPoint x="148" y="127" as="targetPoint" />
          </mxGeometry>
        </mxCell>
        <mxCell id="pwm8pi5SUgmq0KaPsRMn-39" value="" style="endArrow=classic;html=1;rounded=0;exitX=0.5;exitY=0;exitDx=0;exitDy=0;entryX=0.75;entryY=1;entryDx=0;entryDy=0;" edge="1" parent="1" source="pwm8pi5SUgmq0KaPsRMn-23" target="pwm8pi5SUgmq0KaPsRMn-7">
          <mxGeometry width="50" height="50" relative="1" as="geometry">
            <mxPoint x="102" y="191" as="sourcePoint" />
            <mxPoint x="158" y="137" as="targetPoint" />
          </mxGeometry>
        </mxCell>
        <mxCell id="pwm8pi5SUgmq0KaPsRMn-40" value="" style="endArrow=classic;html=1;rounded=0;exitX=0.5;exitY=0;exitDx=0;exitDy=0;entryX=0.75;entryY=1;entryDx=0;entryDy=0;" edge="1" parent="1" source="pwm8pi5SUgmq0KaPsRMn-21" target="pwm8pi5SUgmq0KaPsRMn-7">
          <mxGeometry width="50" height="50" relative="1" as="geometry">
            <mxPoint x="112" y="201" as="sourcePoint" />
            <mxPoint x="168" y="147" as="targetPoint" />
          </mxGeometry>
        </mxCell>
        <mxCell id="pwm8pi5SUgmq0KaPsRMn-41" value="" style="endArrow=classic;html=1;rounded=0;exitX=0.5;exitY=0;exitDx=0;exitDy=0;entryX=0.5;entryY=1;entryDx=0;entryDy=0;" edge="1" parent="1" source="pwm8pi5SUgmq0KaPsRMn-15" target="pwm8pi5SUgmq0KaPsRMn-7">
          <mxGeometry width="50" height="50" relative="1" as="geometry">
            <mxPoint x="122" y="211" as="sourcePoint" />
            <mxPoint x="178" y="157" as="targetPoint" />
          </mxGeometry>
        </mxCell>
        <mxCell id="pwm8pi5SUgmq0KaPsRMn-42" value="" style="endArrow=classic;html=1;rounded=0;exitX=0.5;exitY=0;exitDx=0;exitDy=0;entryX=0.25;entryY=1;entryDx=0;entryDy=0;" edge="1" parent="1" source="pwm8pi5SUgmq0KaPsRMn-13" target="pwm8pi5SUgmq0KaPsRMn-7">
          <mxGeometry width="50" height="50" relative="1" as="geometry">
            <mxPoint x="132" y="221" as="sourcePoint" />
            <mxPoint x="188" y="167" as="targetPoint" />
          </mxGeometry>
        </mxCell>
        <mxCell id="pwm8pi5SUgmq0KaPsRMn-43" value="" style="endArrow=classic;html=1;rounded=0;exitX=0.5;exitY=0;exitDx=0;exitDy=0;entryX=0;entryY=1;entryDx=0;entryDy=0;" edge="1" parent="1" source="pwm8pi5SUgmq0KaPsRMn-9" target="pwm8pi5SUgmq0KaPsRMn-7">
          <mxGeometry width="50" height="50" relative="1" as="geometry">
            <mxPoint x="142" y="231" as="sourcePoint" />
            <mxPoint x="198" y="177" as="targetPoint" />
          </mxGeometry>
        </mxCell>
        <mxCell id="pwm8pi5SUgmq0KaPsRMn-44" value="" style="endArrow=classic;html=1;rounded=0;exitX=0.5;exitY=0;exitDx=0;exitDy=0;entryX=0;entryY=1;entryDx=0;entryDy=0;" edge="1" parent="1" source="pwm8pi5SUgmq0KaPsRMn-11" target="pwm8pi5SUgmq0KaPsRMn-7">
          <mxGeometry width="50" height="50" relative="1" as="geometry">
            <mxPoint x="152" y="241" as="sourcePoint" />
            <mxPoint x="208" y="187" as="targetPoint" />
          </mxGeometry>
        </mxCell>
        <mxCell id="pwm8pi5SUgmq0KaPsRMn-45" value="" style="endArrow=classic;html=1;rounded=0;exitX=0.5;exitY=0;exitDx=0;exitDy=0;entryX=0.75;entryY=1;entryDx=0;entryDy=0;" edge="1" parent="1" source="pwm8pi5SUgmq0KaPsRMn-5" target="pwm8pi5SUgmq0KaPsRMn-1">
          <mxGeometry width="50" height="50" relative="1" as="geometry">
            <mxPoint x="162" y="251" as="sourcePoint" />
            <mxPoint x="218" y="197" as="targetPoint" />
          </mxGeometry>
        </mxCell>
        <mxCell id="pwm8pi5SUgmq0KaPsRMn-46" value="" style="endArrow=classic;html=1;rounded=0;exitX=0.5;exitY=0;exitDx=0;exitDy=0;entryX=0.25;entryY=1;entryDx=0;entryDy=0;" edge="1" parent="1" source="pwm8pi5SUgmq0KaPsRMn-3" target="pwm8pi5SUgmq0KaPsRMn-1">
          <mxGeometry width="50" height="50" relative="1" as="geometry">
            <mxPoint x="172" y="261" as="sourcePoint" />
            <mxPoint x="228" y="207" as="targetPoint" />
          </mxGeometry>
        </mxCell>
        <mxCell id="pwm8pi5SUgmq0KaPsRMn-47" value="" style="endArrow=classic;html=1;rounded=0;exitX=0.5;exitY=0;exitDx=0;exitDy=0;entryX=0.75;entryY=1;entryDx=0;entryDy=0;" edge="1" parent="1" source="pwm8pi5SUgmq0KaPsRMn-1" target="eDFqkNTLr4-eCkODvhOK-2">
          <mxGeometry width="50" height="50" relative="1" as="geometry">
            <mxPoint x="182" y="271" as="sourcePoint" />
            <mxPoint x="238" y="217" as="targetPoint" />
          </mxGeometry>
        </mxCell>
        <mxCell id="pwm8pi5SUgmq0KaPsRMn-48" value="" style="endArrow=classic;html=1;rounded=0;exitX=0.5;exitY=0;exitDx=0;exitDy=0;entryX=0.25;entryY=1;entryDx=0;entryDy=0;" edge="1" parent="1" source="pwm8pi5SUgmq0KaPsRMn-29" target="pwm8pi5SUgmq0KaPsRMn-9">
          <mxGeometry width="50" height="50" relative="1" as="geometry">
            <mxPoint x="74" y="116" as="sourcePoint" />
            <mxPoint x="130" y="62" as="targetPoint" />
          </mxGeometry>
        </mxCell>
        <mxCell id="pwm8pi5SUgmq0KaPsRMn-49" value="" style="endArrow=classic;html=1;rounded=0;exitX=0.5;exitY=0;exitDx=0;exitDy=0;entryX=1;entryY=1;entryDx=0;entryDy=0;" edge="1" parent="1" source="pwm8pi5SUgmq0KaPsRMn-25" target="pwm8pi5SUgmq0KaPsRMn-7">
          <mxGeometry width="50" height="50" relative="1" as="geometry">
            <mxPoint x="102" y="191" as="sourcePoint" />
            <mxPoint x="158" y="137" as="targetPoint" />
          </mxGeometry>
        </mxCell>
      </root>
    </mxGraphModel>
  </diagram>
</mxfile>
